<?xml version="1.0" encoding="UTF-8"?>
<svg width="52px" height="37px" viewBox="0 0 52 37" version="1.1" xmlns="http://www.w3.org/2000/svg" xmlns:xlink="http://www.w3.org/1999/xlink">
    <title>Icon / Marker</title>
    <g id="Desktop" stroke="none" stroke-width="1" fill="none" fill-rule="evenodd">
        <g id="002---Home" transform="translate(-477.000000, -1227.000000)" fill="#00BE66" fill-rule="nonzero">
            <g id="About" transform="translate(0.000000, 826.000000)">
                <g id="content" transform="translate(289.000000, 393.000000)">
                    <g id="Item-/-Stat-Copy" transform="translate(188.000000, 0.000000)">
                        <g id="website" transform="translate(0.000000, 8.000000)">
                            <path d="M43.6129032,2.51612903 L8.38709677,2.51612903 C7.92389021,2.51612903 7.5483871,2.89163215 7.5483871,3.35483871 L7.5483871,28.516129 C7.5483871,28.9793356 7.92389021,29.3548387 8.38709677,29.3548387 L43.6129032,29.3548387 C44.0761098,29.3548387 44.4516129,28.9793356 44.4516129,28.516129 L44.4516129,3.35483871 C44.4516129,2.89163215 44.0761098,2.51612903 43.6129032,2.51612903 Z M42.7741935,27.6774194 L9.22580645,27.6774194 L9.22580645,4.19354839 L42.7741935,4.19354839 L42.7741935,27.6774194 Z" id="Shape"></path>
                            <path d="M51.1612903,30.1935484 L46.9677419,30.1935484 L46.9677419,2.93548387 C46.9659508,1.31500339 45.6527385,0.00179113048 44.0322581,0 L7.96774194,0 C6.34726145,0.00179113048 5.03404919,1.31500339 5.03225806,2.93548387 L5.03225806,30.1935484 L0.838709677,30.1935484 C0.375503113,30.1935484 0,30.5690515 0,31.0322581 L0,33.9677419 C0.00179113048,35.5882224 1.31500339,36.9014347 2.93548387,36.9032258 L49.0645161,36.9032258 C50.6849966,36.9014347 51.9982089,35.5882224 52,33.9677419 L52,31.0322581 C52,30.5690515 51.6244969,30.1935484 51.1612903,30.1935484 Z M6.70967742,2.93548387 C6.71025551,2.24091362 7.27317168,1.67799744 7.96774194,1.67741935 L44.0322581,1.67741935 C44.7268283,1.67799744 45.2897445,2.24091362 45.2903226,2.93548387 L45.2903226,30.1935484 L6.70967742,30.1935484 L6.70967742,2.93548387 Z M28.145,31.8709677 L27.8304839,32.7096774 L24.1695161,32.7096774 L23.855,31.8709677 L28.145,31.8709677 Z M50.3225806,33.9677419 C50.3220026,34.6623122 49.7590864,35.2252284 49.0645161,35.2258065 L2.93548387,35.2258065 C2.24091362,35.2252284 1.67799744,34.6623122 1.67741935,33.9677419 L1.67741935,31.8709677 L22.0643548,31.8709677 L22.8034677,33.8429839 C22.9263758,34.1701734 23.2391966,34.3869345 23.5887097,34.3870968 L28.4112903,34.3870968 C28.7608034,34.3869345 29.0736242,34.1701734 29.1965323,33.8429839 L29.9356452,31.8709677 L50.3225806,31.8709677 L50.3225806,33.9677419 Z" id="Shape"></path>
                            <path d="M24.7670968,12.7085484 L18.0574194,8.515 C17.7857112,8.34411159 17.4400953,8.34411159 17.1683871,8.515 L10.4587097,12.7085484 C10.2134177,12.8615488 10.0645161,13.1302575 10.0645161,13.4193548 L10.0645161,22.6451613 C10.0645161,23.1083679 10.4400192,23.483871 10.9032258,23.483871 L24.3225806,23.483871 C24.7857872,23.483871 25.1612904,23.1083679 25.1612904,22.6451613 L25.1612904,13.4193548 C25.1612904,13.1302575 25.0123888,12.8615488 24.7670968,12.7085484 Z M18.4516129,21.8064516 L16.7741935,21.8064516 L16.7741935,18.4516129 L18.4516129,18.4516129 L18.4516129,21.8064516 Z M23.483871,21.8064516 L20.1290323,21.8064516 L20.1290323,17.6129032 C20.1290323,17.1496967 19.7535291,16.7741935 19.2903226,16.7741935 L15.9354839,16.7741935 C15.4722773,16.7741935 15.0967742,17.1496967 15.0967742,17.6129032 L15.0967742,21.8064516 L11.7419355,21.8064516 L11.7419355,13.8837903 L17.6129032,10.2144355 L23.483871,13.8837903 L23.483871,21.8064516 Z" id="Shape"></path>
                            <path d="M26.8387097,15.0967742 L41.0967742,15.0967742 C41.5599808,15.0967742 41.9354839,14.7212711 41.9354839,14.2580645 L41.9354839,11.7419355 C41.9354839,11.2787289 41.5599808,10.9032258 41.0967742,10.9032258 L26.8387097,10.9032258 C26.3755031,10.9032258 26,11.2787289 26,11.7419355 L26,14.2580645 C26,14.7212711 26.3755031,15.0967742 26.8387097,15.0967742 Z M27.6774194,12.5806452 L40.2580645,12.5806452 L40.2580645,13.4193548 L27.6774194,13.4193548 L27.6774194,12.5806452 Z" id="Shape"></path>
                            <path d="M26.8387097,17.6129032 L41.0967742,17.6129032 C41.5599808,17.6129032 41.9354839,17.2374001 41.9354839,16.7741935 C41.9354839,16.310987 41.5599808,15.9354839 41.0967742,15.9354839 L26.8387097,15.9354839 C26.3755031,15.9354839 26,16.310987 26,16.7741935 C26,17.2374001 26.3755031,17.6129032 26.8387097,17.6129032 Z" id="Path"></path>
                            <path d="M26.8387097,20.1290323 L41.0967742,20.1290323 C41.5599808,20.1290323 41.9354839,19.7535291 41.9354839,19.2903226 C41.9354839,18.827116 41.5599808,18.4516129 41.0967742,18.4516129 L26.8387097,18.4516129 C26.3755031,18.4516129 26,18.827116 26,19.2903226 C26,19.7535291 26.3755031,20.1290323 26.8387097,20.1290323 Z" id="Path"></path>
                            <path d="M26.8387097,22.6451613 L34.3870968,22.6451613 C34.8503033,22.6451613 35.2258065,22.2696582 35.2258065,21.8064516 C35.2258065,21.343245 34.8503033,20.9677419 34.3870968,20.9677419 L26.8387097,20.9677419 C26.3755031,20.9677419 26,21.343245 26,21.8064516 C26,22.2696582 26.3755031,22.6451613 26.8387097,22.6451613 Z" id="Path"></path>
                        </g>
                    </g>
                </g>
            </g>
        </g>
    </g>
</svg>