<?xml version="1.0" encoding="UTF-8"?>
<svg width="42px" height="52px" viewBox="0 0 42 52" version="1.1" xmlns="http://www.w3.org/2000/svg" xmlns:xlink="http://www.w3.org/1999/xlink">
    <title>Icon / Marker</title>
    <g id="Desktop" stroke="none" stroke-width="1" fill="none" fill-rule="evenodd">
        <g id="002---Home" transform="translate(-671.000000, -1219.000000)" fill="#00BE66" fill-rule="nonzero">
            <g id="About" transform="translate(0.000000, 826.000000)">
                <g id="content" transform="translate(289.000000, 393.000000)">
                    <g id="Item-/-Stat-Copy-2" transform="translate(377.000000, 0.000000)">
                        <g id="navigator" transform="translate(5.000000, 0.000000)">
                            <path d="M20.8064772,5.82581362 C12.5463058,5.82581362 5.82581362,12.5463058 5.82581362,20.8064772 C5.82581362,29.0666487 12.5463058,35.7871408 20.8064772,35.7871408 C29.0666487,35.7871408 35.7871408,29.0666487 35.7871408,20.8064772 C35.7871408,12.5463058 29.0666487,5.82581362 20.8064772,5.82581362 Z M20.8064772,34.1226226 C13.4521732,34.1226226 7.4903318,28.1607813 7.4903318,20.8064772 C7.4903318,13.4521732 13.4521732,7.4903318 20.8064772,7.4903318 C28.1607813,7.4903318 34.1226226,13.4521732 34.1226226,20.8064772 C34.1143668,28.1573589 28.1573589,34.1143668 20.8064772,34.1226226 Z" id="Shape"></path>
                            <path d="M20.8064772,0 C9.33378568,0 0,9.33378568 0,20.8064772 C0,25.5784428 3.42370583,32.1876203 10.1743674,40.4509127 C13.3209716,44.2764692 16.6795508,47.9226289 20.2342991,51.3722326 C20.5552434,51.67608 21.057711,51.67608 21.3786553,51.3722326 C24.9334036,47.9226289 28.2919829,44.2764692 31.4385871,40.4509127 C38.1892486,32.1876203 41.6129544,25.5784428 41.6129544,20.8064772 C41.6129544,9.33378568 32.2791688,0 20.8064772,0 L20.8064772,0 Z M20.8064772,49.6078433 C17.5627474,46.423412 1.66451818,30.3296018 1.66451818,20.8064772 C1.66451818,10.2513513 10.2513513,1.66451818 20.8064772,1.66451818 C31.3616031,1.66451818 39.9484363,10.2513513 39.9484363,20.8064772 C39.9484363,30.3254405 24.050207,46.423412 20.8064772,49.6078433 Z" id="Shape"></path>
                            <path d="M27.9056472,16.7721013 L21.2475745,12.6108058 C20.9779561,12.4412318 20.6349983,12.4412318 20.3653799,12.6108058 L13.7073072,16.7721013 C13.4639017,16.923925 13.3161454,17.190567 13.3161454,17.4774409 L13.3161454,26.6322908 C13.3161454,27.0919348 13.6887605,27.4645499 14.1484045,27.4645499 L27.4645499,27.4645499 C27.9241939,27.4645499 28.2968091,27.0919348 28.2968091,26.6322908 L28.2968091,17.4774409 C28.2968091,17.190567 28.1490527,16.923925 27.9056472,16.7721013 Z M21.6387363,25.8000318 L19.9742181,25.8000318 L19.9742181,22.4709954 L21.6387363,22.4709954 L21.6387363,25.8000318 Z M26.6322908,25.8000318 L23.3032545,25.8000318 L23.3032545,21.6387363 C23.3032545,21.1790923 22.9306394,20.8064772 22.4709954,20.8064772 L19.141959,20.8064772 C18.682315,20.8064772 18.3097,21.1790923 18.3097,21.6387363 L18.3097,25.8000318 L14.9806636,25.8000318 L14.9806636,17.9383043 L20.8064772,14.2971708 L26.6322908,17.9383043 L26.6322908,25.8000318 Z" id="Shape"></path>
                        </g>
                    </g>
                </g>
            </g>
        </g>
    </g>
</svg>