<?xml version="1.0" encoding="UTF-8"?>
<svg width="52px" height="46px" viewBox="0 0 52 46" version="1.1" xmlns="http://www.w3.org/2000/svg" xmlns:xlink="http://www.w3.org/1999/xlink">
    <title>Icon / Marker</title>
    <g id="Desktop" stroke="none" stroke-width="1" fill="none" fill-rule="evenodd">
        <g id="003---About" transform="translate(-880.000000, -2722.000000)" fill="#00BE66" fill-rule="nonzero">
            <g id="Module-/-Features" transform="translate(0.000000, 2438.000000)">
                <g id="Features" transform="translate(170.000000, 281.000000)">
                    <g id="Item-/-Feature--Copy-2" transform="translate(710.000000, 0.000000)">
                        <g id="Icon-/-Marker" transform="translate(0.000000, 3.708993)">
                            <g id="conversation" transform="translate(0.000000, 0.000000)">
                                <path d="M22.6451613,19.2903226 L22.6451613,22.6451613 C22.6451613,23.1083679 23.0206644,23.483871 23.483871,23.483871 L30.1935484,23.483871 C30.656755,23.483871 31.0322581,23.1083679 31.0322581,22.6451613 L31.0322581,19.2903226 C31.0322581,18.827116 30.656755,18.4516129 30.1935484,18.4516129 L23.483871,18.4516129 C23.0206644,18.4516129 22.6451613,18.827116 22.6451613,19.2903226 Z M24.3225806,20.1290323 L29.3548387,20.1290323 L29.3548387,21.8064516 L24.3225806,21.8064516 L24.3225806,20.1290323 Z" id="Shape"></path>
                                <path d="M23.483871,16.7741935 C24.5015502,16.7741935 25.4190221,16.1611584 25.8084711,15.2209454 C26.19792,14.2807324 25.9826507,13.1985005 25.2630429,12.4788926 C24.543435,11.7592848 23.4612031,11.5440154 22.5209901,11.9334644 C21.5807771,12.3229134 20.9677419,13.2403853 20.9677419,14.2580645 C20.9693019,15.6470375 22.0948979,16.7726336 23.483871,16.7741935 L23.483871,16.7741935 Z M23.483871,13.4193548 C23.9470775,13.4193548 24.3225806,13.794858 24.3225806,14.2580645 C24.3225806,14.7212711 23.9470775,15.0967742 23.483871,15.0967742 C23.0206644,15.0967742 22.6451613,14.7212711 22.6451613,14.2580645 C22.6456813,13.7950735 23.02088,13.4198748 23.483871,13.4193548 Z" id="Shape"></path>
                                <path d="M49.0645161,6.70967742 L46.9677419,6.70967742 L46.9677419,2.93548387 C46.9659508,1.31500339 45.6527385,0.00179113048 44.0322581,2.97969534e-15 L2.93548387,2.97969534e-15 C1.31500339,0.00179113048 0.00179113048,1.31500339 0,2.93548387 L0,32.2903226 C0.00179113048,33.9108031 1.31500339,35.2240153 2.93548387,35.2258065 L5.87096774,35.2258065 L5.87096774,39.4193548 C5.87070062,39.7587862 6.07504877,40.0649137 6.38862765,40.1948446 C6.70220652,40.3247755 7.06318384,40.2528898 7.30306452,40.0127419 L12.0889516,35.2258065 L15.0967742,35.2258065 L15.0967742,37.3225806 C15.0985653,38.9430611 16.4117776,40.2562734 18.0322581,40.2580645 L39.9110484,40.2580645 L44.6969355,45.045 C44.9368162,45.2851479 45.2977935,45.3570336 45.6113724,45.2271027 C45.9249512,45.0971718 46.1292994,44.7910443 46.1290323,44.4516129 L46.1290323,40.2580645 L49.0645161,40.2580645 C50.6849966,40.2562734 51.9982089,38.9430611 52,37.3225806 L52,9.64516129 C51.9982089,8.02468081 50.6849966,6.71146855 49.0645161,6.70967742 Z M11.7419355,33.5483871 C11.5194472,33.5483042 11.3060239,33.6365393 11.1485484,33.7937097 L7.5483871,37.3949194 L7.5483871,34.3870968 C7.5483871,33.9238902 7.17288398,33.5483871 6.70967742,33.5483871 L2.93548387,33.5483871 C2.24091362,33.547809 1.67799744,32.9848928 1.67741935,32.2903226 L1.67741935,2.93548387 C1.67799744,2.24091362 2.24091362,1.67799744 2.93548387,1.67741935 L44.0322581,1.67741935 C44.7268283,1.67799744 45.2897445,2.24091362 45.2903226,2.93548387 L45.2903226,32.2903226 C45.2897445,32.9848928 44.7268283,33.547809 44.0322581,33.5483871 L11.7419355,33.5483871 Z M50.3225806,37.3225806 C50.3220026,38.0171509 49.7590864,38.5800671 49.0645161,38.5806452 L45.2903226,38.5806452 C44.827116,38.5806452 44.4516129,38.9561483 44.4516129,39.4193548 L44.4516129,42.4271774 L40.8514516,38.8259677 C40.6939761,38.6687974 40.4805528,38.5805623 40.2580645,38.5806452 L18.0322581,38.5806452 C17.3376878,38.5800671 16.7747716,38.0171509 16.7741935,37.3225806 L16.7741935,35.2258065 L44.0322581,35.2258065 C45.6527385,35.2240153 46.9659508,33.9108031 46.9677419,32.2903226 L46.9677419,8.38709677 L49.0645161,8.38709677 C49.7590864,8.38767486 50.3220026,8.95059104 50.3225806,9.64516129 L50.3225806,37.3225806 Z" id="Shape"></path>
                                <path d="M36.53,12.721129 L34.3870968,11.2932258 L34.3870968,6.70967742 C34.3870968,6.24647085 34.0115937,5.87096774 33.5483871,5.87096774 L30.1935484,5.87096774 C29.7303418,5.87096774 29.3548387,6.24647085 29.3548387,6.70967742 L29.3548387,7.9383871 L23.9493548,4.33403226 C23.6674065,4.14636048 23.3003354,4.14636048 23.0183871,4.33403226 L10.4377419,12.721129 C10.2048694,12.8772393 10.0649503,13.1389982 10.0645161,13.4193548 L10.0645161,16.7741935 C10.0649639,17.0833735 10.2352891,17.3672925 10.5078644,17.5132211 C10.7804397,17.6591496 11.1111585,17.6434745 11.3687097,17.4724194 L13.4193548,16.1042742 L13.4193548,26 L11.7419355,26 C11.2787289,26 10.9032258,26.3755031 10.9032258,26.8387097 L10.9032258,29.3548387 C10.9032258,29.8180453 11.2787289,30.1935484 11.7419355,30.1935484 L35.2258065,30.1935484 C35.689013,30.1935484 36.0645161,29.8180453 36.0645161,29.3548387 L36.0645161,26.8387097 C36.0645161,26.3755031 35.689013,26 35.2258065,26 L33.5483871,26 L33.5483871,16.1042742 L35.5990323,17.4724194 C35.7369883,17.5640335 35.8989111,17.6129021 36.0645161,17.6129032 C36.5273638,17.6120378 36.9023604,17.2370412 36.9032258,16.7741935 L36.9032258,13.4193548 C36.9027917,13.1389982 36.7628725,12.8772393 36.53,12.721129 Z M31.0322581,7.5483871 L32.7096774,7.5483871 L32.7096774,10.1745968 L31.0322581,9.05701613 L31.0322581,7.5483871 Z M34.3870968,27.6774194 L34.3870968,28.516129 L12.5806452,28.516129 L12.5806452,27.6774194 L34.3870968,27.6774194 Z M20.9677419,18.4516129 L16.7741935,18.4516129 C16.310987,18.4516129 15.9354839,18.827116 15.9354839,19.2903226 L15.9354839,26 L15.0967742,26 L15.0967742,15.0967742 C15.0964531,15.0613633 15.0940024,15.0260037 15.0894355,14.9908871 L23.483871,9.39564516 L31.8783065,14.9908871 C31.8737395,15.0260037 31.8712889,15.0613633 31.8709677,15.0967742 L31.8709677,26 L21.8064516,26 L21.8064516,19.2903226 C21.8064516,18.827116 21.4309485,18.4516129 20.9677419,18.4516129 Z M20.1290323,20.1290323 L20.1290323,26 L17.6129032,26 L17.6129032,20.1290323 L20.1290323,20.1290323 Z M35.2258065,15.2068548 L23.9493548,7.68887097 C23.6672963,7.50156416 23.3004457,7.50156416 23.0183871,7.68887097 L11.7419355,15.2068548 L11.7419355,13.8680645 L23.483871,6.04080645 L29.7196774,10.1976613 C29.7236693,10.1998672 29.7275207,10.2023181 29.7312097,10.205 L33.0787097,12.4359677 C33.0788072,12.4370829 33.0796913,12.437967 33.0808065,12.4380645 L35.2258065,13.8680645 L35.2258065,15.2068548 Z" id="Shape"></path>
                            </g>
                        </g>
                    </g>
                </g>
            </g>
        </g>
    </g>
</svg>