<?xml version="1.0" encoding="UTF-8"?>
<svg width="52px" height="52px" viewBox="0 0 52 52" version="1.1" xmlns="http://www.w3.org/2000/svg" xmlns:xlink="http://www.w3.org/1999/xlink">
    <title>Icon / Marker</title>
    <g id="Desktop" stroke="none" stroke-width="1" fill="none" fill-rule="evenodd">
        <g id="003---About" transform="translate(-1235.000000, -2719.000000)" fill="#00BE66" fill-rule="nonzero">
            <g id="Module-/-Features" transform="translate(0.000000, 2438.000000)">
                <g id="Features" transform="translate(170.000000, 281.000000)">
                    <g id="presentation" transform="translate(1065.000000, 0.000000)">
                        <path d="M49.483871,34.3870968 L48.6451613,34.3870968 L48.6451613,2.93548387 C48.6433702,1.31500339 47.3301579,0.00179113048 45.7096774,0 L6.29032258,0 C4.6698421,0.00179113048 3.35662984,1.31500339 3.35483871,2.93548387 L3.35483871,34.3870968 L2.51612903,34.3870968 C1.12650934,34.3870968 0,35.5136061 0,36.9032258 C0,38.2928455 1.12650934,39.4193548 2.51612903,39.4193548 L14.6868548,39.4193548 L10.0215323,50.8446774 C9.91608978,51.1033284 9.9463298,51.3974985 10.1021885,51.6292883 C10.2580471,51.8610781 10.5190693,52 10.7983871,52 L15.8306452,52 C16.1715781,52 16.4785594,51.7935131 16.6075,51.4779032 L21.5307258,39.4193548 L30.4640323,39.4193548 L35.2855645,51.4726613 C35.4130692,51.7910942 35.7215046,52 36.0645161,52 L41.0967742,52 C41.3748879,52 41.6347381,51.8614322 41.7906993,51.6311637 C41.9466605,51.4008953 41.9784999,51.1083472 41.8757258,50.8499194 L37.3037097,39.4193548 L49.483871,39.4193548 C50.8734907,39.4193548 52,38.2928455 52,36.9032258 C52,35.5136061 50.8734907,34.3870968 49.483871,34.3870968 Z M5.03225806,2.93548387 C5.03283615,2.24091362 5.59575233,1.67799744 6.29032258,1.67741935 L45.7096774,1.67741935 C46.4042477,1.67799744 46.9671638,2.24091362 46.9677419,2.93548387 L46.9677419,34.3870968 L5.03225806,34.3870968 L5.03225806,2.93548387 Z M15.2666129,50.3225806 L12.0470161,50.3225806 L16.4995161,39.4193548 L19.7191129,39.4193548 L15.2666129,50.3225806 Z M39.8575806,50.3225806 L36.6327419,50.3225806 L32.2714516,39.4193548 L35.4962903,39.4193548 L39.8575806,50.3225806 Z M49.483871,37.7419355 L2.51612903,37.7419355 C2.05292247,37.7419355 1.67741935,37.3664324 1.67741935,36.9032258 C1.67741935,36.4400192 2.05292247,36.0645161 2.51612903,36.0645161 L49.483871,36.0645161 C49.9470775,36.0645161 50.3225806,36.4400192 50.3225806,36.9032258 C50.3225806,37.3664324 49.9470775,37.7419355 49.483871,37.7419355 Z" id="Shape"></path>
                        <path d="M21.4122581,21.9343548 L14.7025806,17.7408065 C14.4308725,17.569918 14.0852565,17.569918 13.8135484,17.7408065 L7.10387097,21.9343548 C6.85857896,22.0873553 6.70967735,22.3560639 6.70967735,22.6451613 L6.70967735,31.8709677 C6.70967735,32.3341743 7.08518053,32.7096774 7.5483871,32.7096774 L20.9677419,32.7096774 C21.4309485,32.7096774 21.8064517,32.3341743 21.8064517,31.8709677 L21.8064517,22.6451613 C21.8064517,22.3560639 21.6575501,22.0873553 21.4122581,21.9343548 Z M15.0967742,31.0322581 L13.4193548,31.0322581 L13.4193548,27.6774194 L15.0967742,27.6774194 L15.0967742,31.0322581 Z M20.1290323,31.0322581 L16.7741935,31.0322581 L16.7741935,26.8387097 C16.7741935,26.3755031 16.3986904,26 15.9354839,26 L12.5806452,26 C12.1174386,26 11.7419355,26.3755031 11.7419355,26.8387097 L11.7419355,31.0322581 L8.38709677,31.0322581 L8.38709677,23.1095968 L14.2580645,19.4402419 L20.1290323,23.1095968 L20.1290323,31.0322581 Z" id="Shape"></path>
                        <path d="M41.9354839,14.2580645 L34.3870968,14.2580645 L34.3870968,6.70967742 C34.3870968,6.24647085 34.0115937,5.87096774 33.5483871,5.87096774 C28.4531149,5.87096774 24.3225806,10.001502 24.3225806,15.0967742 C24.3225806,20.1920464 28.4531149,24.3225806 33.5483871,24.3225806 C38.6436593,24.3225806 42.7741935,20.1920464 42.7741935,15.0967742 C42.7741935,14.8743346 42.6858297,14.6610055 42.5285412,14.5037169 C42.3712526,14.3464283 42.1579235,14.2580645 41.9354839,14.2580645 Z M33.5483871,22.6451627 C29.5409437,22.6475763 26.230118,19.5180033 26.0071443,15.516767 C25.7841705,11.5155308 28.7267781,8.03747752 32.7096774,7.59462097 L32.7096774,15.0967742 C32.7096774,15.5599808 33.0851805,15.9354839 33.5483871,15.9354839 L41.0505403,15.9354839 C40.6184797,19.7536483 37.3909165,22.6402739 33.5483871,22.6451627 Z" id="Shape"></path>
                        <path d="M36.0645161,3.35483871 C35.6013096,3.35483871 35.2258065,3.73034182 35.2258065,4.19354839 L35.2258065,12.5806452 C35.2258065,13.0438517 35.6013096,13.4193548 36.0645161,13.4193548 L44.4516129,13.4193548 C44.9148195,13.4193548 45.2903226,13.0438517 45.2903226,12.5806452 C45.2845451,7.487768 41.1573933,3.36061623 36.0645161,3.35483871 L36.0645161,3.35483871 Z M36.9032258,11.7419355 L36.9032258,5.07849194 C40.4056767,5.47567216 43.1694891,8.23948458 43.5666694,11.7419355 L36.9032258,11.7419355 Z" id="Shape"></path>
                        <path d="M22.5403226,12.5806452 L14.2580645,12.5806452 C13.794858,12.5806452 13.4193548,12.9561483 13.4193548,13.4193548 L13.4193548,15.9354839 C13.4193548,16.3986904 13.794858,16.7741935 14.2580645,16.7741935 C14.7212711,16.7741935 15.0967742,16.3986904 15.0967742,15.9354839 L15.0967742,14.2580645 L22.5403226,14.2580645 C23.0035291,14.2580645 23.3790323,13.8825614 23.3790323,13.4193548 C23.3790323,12.9561483 23.0035291,12.5806452 22.5403226,12.5806452 Z" id="Path"></path>
                    </g>
                </g>
            </g>
        </g>
    </g>
</svg>