<?xml version="1.0" encoding="UTF-8"?>
<svg width="1700px" height="900px" viewBox="0 0 1700 900" version="1.1" xmlns="http://www.w3.org/2000/svg" xmlns:xlink="http://www.w3.org/1999/xlink">
    <title>001 - Intro</title>
    <defs>
        <radialGradient cx="50%" cy="50%" fx="50%" fy="50%" r="50.1654506%" id="radialGradient-1">
            <stop stop-color="#007CFF" stop-opacity="0.600280335" offset="0%"></stop>
            <stop stop-color="#0030BE" stop-opacity="0" offset="98.7011036%"></stop>
        </radialGradient>
    </defs>
    <g id="001---Intro" stroke="none" stroke-width="1" fill="none" fill-rule="evenodd">
        <rect fill="#FFFFFF" x="0" y="0" width="1700" height="900"></rect>
        <g id="Group-3" transform="translate(-25.601379, -59.914734)">
            <rect id="bg" fill="#00052D" x="25.6013794" y="59.9147339" width="1700" height="908"></rect>
            <g id="map" opacity="0.0399999991" stroke="#FFFFFF">
                <g id="Group-2" stroke-width="10">
                    <polyline id="Path" points="499.646223 1120.91473 590.691447 1010.42613 782.721582 956.120207 817.754041 920.297458 856.344436 912.211798 912.949689 936.222451 977.016745 920.297458 1042.02956 912.211798 1147.0508 871.381895 1239.91389 820.13726 1266.59615 775.993804 1282.71082 763.088599 1310.06504 753.993717 1342.47028 744.76794 1385.4116 709.25428 1442.65142 619.269111 1612.32379 394.70366 1644.13572 377.224018 1662.33214 347.835505 1809.12047 205.780902 1898.60138 153.651605"></polyline>
                    <polyline id="Path-2" points="44.6013794 1040.74928 499.646223 786.552608 577.751609 637.28317 881.181948 556.39938 1019.48931 436.076018 1170.78277 408.782065 1248.04263 415.299543 1424.5557 362.278459 1536.04987 308.473427 1633.08626 290.263203 1703.42048 308.473427"></polyline>
                    <polyline id="Path-3" points="591.823065 1021.03115 513.979347 786.552608 471.73533 786.552608 450.384563 732.253563 375.14106 562.471323 343.357849 290.263203 127.167236 24.1769409"></polyline>
                    <polyline id="Path-4" points="15.6012573 978.683655 90.1268739 878.062242 174.678794 786.552608 238.485793 624.797525 247.95586 562.471323 349.126952 470.961688 620.826864 353.640767 724.960647 330.177635 780.608035 290.263203 798.272736 215.016741 932.806935 153.651605 972.796311 133.709919 1048.25604 153.651605 1389.4436 56.9147339"></polyline>
                    <polyline id="Path-5" points="0 737.044861 237.528143 440.283685 449.832648 373.528122 761.164116 277.174095 784.897011 223.879868 867.939439 182.524194"></polyline>
                    <polyline id="Path-10" points="299.682312 -5.68434189e-14 357.911173 141.216712 373.434967 290.263203 387.174242 382.860235 418.696107 485.249041 518.178894 792.789245"></polyline>
                    <polyline id="Path-7" points="1081.62287 57.0471811 1120.69978 222.43085 1159.74891 254.620609 1221.97387 616.350872 1201.75359 657.721154 1169.09293 687.128858 1142.41195 687.128858 1120.69978 722.476963 1120.69978 786.685055 1159.74891 869.302669"></polyline>
                </g>
                <g id="Group" transform="translate(25.601379, 30.914734)" stroke-width="5">
                    <polyline id="Path-6" points="554.31665 7.25439453 580.017971 199.774945 605.147913 370.241528 649.998376 580.036247 691.42111 606.368436 708.971002 720.566599 743.184399 847.147508 778.957852 902.287929"></polyline>
                    <polyline id="Path-8" points="488.377968 761.874511 624.43337 714.615528 709.293871 707.012425 1197.33044 546.455801 1258.76245 546.455801 1499.72534 479"></polyline>
                    <polyline id="Path-11" points="389.738979 681.92524 407.584452 651.842717 470.524509 651.842717 547.816276 618.294368"></polyline>
                    <polyline id="Path-12" points="414.072571 514.58313 446.133951 497.503343 462.044787 476.845879 1139.8784 271.692691 1173.52242 284.011296 1854.79212 82.7403242"></polyline>
                    <polyline id="Path-13" points="0 491.689313 207.115662 247.364349 575.551514 151.60946 1070.63135 0"></polyline>
                    <polyline id="Path-14" points="724.79895 771.144287 1026.89026 681.92524 1026.89026 670.269714 1056.02149 657.526733 1056.02149 634.591509 1104 576"></polyline>
                    <path d="M468.777627,929 L492.577515,907.981079 L535.315674,892.157471 L744.74939,838.387935 C934.624634,781.972289 1031.49288,753.764465 1035.35413,753.764465 C1039.21537,753.764465 1049.23995,753.764465 1065.42786,753.764465 L1091.18079,734.350525 L1372.07483,658.564331" id="Path-15"></path>
                    <path d="M1241.2771,63.3553467 C1241.2771,69.0408936 1249.60742,96.3170166 1249.60742,96.3170166 C1249.60742,96.3170166 1244.73828,116.702983 1235,157.474915 L1274.30676,259.348469 L1306.00854,358.643494 L1363.84222,581.89856 L1274.30676,606.368436 L1306.00854,717.056946" id="Path-18"></path>
                    <polyline id="Path-9" points="882.097673 648.598371 835.185517 492.426516 802.162468 456.378601 771.809751 207.99791"></polyline>
                    <line x1="1044.15771" y1="592.565979" x2="965.759277" y2="110.231079" id="Path-17"></line>
                    <polyline id="Path-19" points="807.716064 13.4277954 836.759155 190.385437 856.612671 351.398529 882.097673 491.689313 907.404419 644"></polyline>
                </g>
            </g>
        </g>
        <circle id="Oval" fill="url(#radialGradient-1)" opacity="0.300000012" cx="770" cy="-371" r="1008"></circle>
        <g id="Map" transform="translate(-25.601379, -59.914734)"></g>
    </g>
</svg>