<?xml version="1.0" encoding="UTF-8"?>
<svg width="414px" height="896px" viewBox="0 0 414 896" version="1.1" xmlns="http://www.w3.org/2000/svg" xmlns:xlink="http://www.w3.org/1999/xlink">
    <title>001 - Intro</title>
    <defs>
        <rect id="path-1" x="0" y="0" width="1700" height="908"></rect>
        <radialGradient cx="50%" cy="50%" fx="50%" fy="50%" r="50.1654506%" id="radialGradient-3">
            <stop stop-color="#007CFF" stop-opacity="0.600280335" offset="0%"></stop>
            <stop stop-color="#0030BE" stop-opacity="0" offset="98.7011036%"></stop>
        </radialGradient>
    </defs>
    <g id="001---Intro" stroke="none" stroke-width="1" fill="none" fill-rule="evenodd">
        <rect fill="#FFFFFF" x="0" y="0" width="414" height="896"></rect>
        <mask id="mask-2" fill="white">
            <use xlink:href="#path-1"></use>
        </mask>
        <use id="bg" fill="#00052D" xlink:href="#path-1"></use>
        <circle id="Oval" fill="url(#radialGradient-3)" opacity="0.300000012" mask="url(#mask-2)" cx="206.5" cy="447.5" r="489.5"></circle>
        <g id="Map" mask="url(#mask-2)" opacity="0.0399999991">
            <g transform="translate(-190.000000, -33.000000)" id="map">
                <g id="Group-2" stroke="#FFFFFF" stroke-width="10">
                    <polyline id="Path" points="208.953341 469 247.028688 422.770652 327.336187 400.048606 341.986852 385.060072 358.125455 381.676965 381.797918 391.723221 408.590926 385.060072 435.779453 381.676965 479.699609 364.593396 518.535189 343.152216 529.693781 324.682229 536.432978 319.282584 547.872581 315.477211 561.424537 311.617069 579.38271 296.75786 603.32055 259.107321 674.277974 165.147277 687.581805 157.833651 695.191594 145.537253 756.578855 86.1004323 794 64.289103"></polyline>
                    <polyline id="Path-2" points="18.652412 435.458112 208.953341 329.10012 241.617215 266.644552 368.512566 232.802105 426.35306 182.457814 489.624377 171.037799 521.93465 173.764765 595.752874 151.580305 642.380023 129.067834 682.960892 121.448526 712.374842 129.067834"></polyline>
                    <polyline id="Path-3" points="247.501934 427.207883 214.94749 329.10012 197.280933 329.10012 188.351987 306.38095 156.88496 235.342656 143.593139 121.448526 53.1816666 10.1158321"></polyline>
                    <polyline id="Path-4" points="6.5244861 409.48934 37.6912914 367.388508 73.0511229 329.10012 99.7353745 261.420454 103.695781 235.342656 146.005793 197.054268 259.631398 147.966223 303.180415 138.149055 326.452296 121.448526 333.83972 89.9647836 390.102269 64.289103 406.825929 55.9453364 438.383382 64.289103 581.068902 23.8135956"></polyline>
                    <polyline id="Path-5" points="0 308.385669 99.3348829 184.218337 188.121175 156.287257 318.320799 115.971935 328.245957 93.6731892 362.974515 76.3696331"></polyline>
                    <polyline id="Path-10" points="125.327917 0 149.679377 59.0862407 156.171468 121.448526 161.917268 160.191891 175.099793 203.032214 216.703752 331.70958"></polyline>
                    <polyline id="Path-7" points="452.337476 23.8690126 468.679544 93.0669083 485.009991 106.53537 511.032628 257.886305 502.576455 275.195973 488.917682 287.5004 477.759629 287.5004 468.679544 302.29034 468.679544 329.155537 485.009991 363.72343"></polyline>
                </g>
                <g id="Group" transform="translate(10.774530, 13.257951)" stroke="#FFFFFF" stroke-width="5">
                    <polyline id="Path-6" points="231.842752 3.03469264 242.592321 83.5708002 253.10291 154.881188 271.861601 242.643507 289.186646 253.658913 296.526882 301.430828 310.836624 354.382753 325.798859 377.449355"></polyline>
                    <polyline id="Path-8" points="204.26392 318.71095 261.169046 298.941348 296.661922 295.760782 500.783054 228.595976 526.476971 228.595976 627.259618 200.377546"></polyline>
                    <polyline id="Path-11" points="163.008196 285.266193 170.472059 272.681929 196.796717 272.681929 229.123973 258.647825"></polyline>
                    <polyline id="Path-12" points="173.185713 215.262849 186.595374 208.117952 193.250076 199.476424 476.753755 113.655772 490.825357 118.808949 775.76618 34.6123239"></polyline>
                    <polyline id="Path-13" points="0 205.685799 86.6260556 103.478625 240.724226 63.4219866 447.7912 0"></polyline>
                    <polyline id="Path-14" points="303.146916 322.588726 429.496504 285.266193 429.496504 280.390398 441.68063 275.059694 441.68063 265.465322 461.747628 240.955045"></polyline>
                    <path d="M196.066084,388.623675 L206.020379,379.83094 L223.8956,373.211534 L311.491181,350.718407 C390.906438,327.118347 431.421549,315.318317 433.036514,315.318317 C434.651479,315.318317 438.844255,315.318317 445.614841,315.318317 L456.385996,307.196986 L573.869834,275.493747" id="Path-15"></path>
                    <path d="M519.163728,26.5031083 C519.163728,28.8815132 522.647883,40.29179 522.647883,40.29179 C522.647883,40.29179 520.611366,48.8197438 516.538333,65.8756512 L532.978374,108.491878 L546.237633,150.029443 L570.426549,243.422558 L532.978374,253.658913 L546.237633,299.962654" id="Path-18"></path>
                    <polyline id="Path-9" points="368.937054 271.324739 349.316061 205.99419 335.504182 190.914455 322.809168 87.0106698"></polyline>
                    <line x1="436.718612" y1="247.885004" x2="403.928492" y2="46.1123865" id="Path-17"></line>
                    <polyline id="Path-19" points="337.826971 5.6171789 349.974234 79.6429367 358.277961 146.998695 368.937054 205.685799 379.521592 269.401127"></polyline>
                </g>
            </g>
        </g>
    </g>
</svg>