<?xml version="1.0" encoding="UTF-8"?>
<svg width="272px" height="39px" viewBox="0 0 272 39" version="1.1" xmlns="http://www.w3.org/2000/svg" xmlns:xlink="http://www.w3.org/1999/xlink">
    <title>Group 2</title>
    <g id="Desktop" stroke="none" stroke-width="1" fill="none" fill-rule="evenodd">
        <g id="003---About" transform="translate(-174.000000, -122.000000)">
            <g id="Group-2" transform="translate(175.000000, 123.000000)">
                <path d="M4.3387062,20.5429796 L17.7864647,20.5429796 C21.837411,20.5429796 26.6646399,21.6033142 26.6646399,26.666496 C26.6646399,29.6235644 25.7779377,32.6455741 19.1973807,32.6455741 L4.3387062,32.6455741 L4.3387062,20.5429796 Z M17.8812693,16.187434 L4.3387062,16.187434 L4.3387062,6.3555456 L18.2091818,6.3555456 C24.4372886,6.3555456 25.1555731,9.01366007 25.1555731,11.0134041 C25.1555731,14.156339 22.301396,16.187434 17.8812693,16.187434 Z M25.8560121,17.9822771 C27.5970713,16.5535686 29.4942793,14.2537509 29.4942793,11.0134041 C29.4942793,5.45308551 25.171188,2 18.2091818,2 L2.14481543,2 C0.561020364,2 0,3.08608721 0,4.01206053 L0,34.9890592 C0,36.173678 0.824242642,37 2.0042815,37 L18.1623372,37 C21.3377348,37 31,37 31,26.7124028 C31,22.371413 28.5618479,19.5061582 25.8560121,17.9822771 L25.8560121,17.9822771 Z" id="Fill-6" fill="#FFFFFF"></path>
                <path d="M4.3387062,20.5429796 L17.7864647,20.5429796 C21.837411,20.5429796 26.6646399,21.6033142 26.6646399,26.666496 C26.6646399,29.6235644 25.7779377,32.6455741 19.1973807,32.6455741 L4.3387062,32.6455741 L4.3387062,20.5429796 Z M17.8812693,16.187434 L4.3387062,16.187434 L4.3387062,6.3555456 L18.2091818,6.3555456 C24.4372886,6.3555456 25.1555731,9.01366007 25.1555731,11.0134041 C25.1555731,14.156339 22.301396,16.187434 17.8812693,16.187434 Z M25.8560121,17.9822771 C27.5970713,16.5535686 29.4942793,14.2537509 29.4942793,11.0134041 C29.4942793,5.45308551 25.171188,2 18.2091818,2 L2.14481543,2 C0.561020364,2 0,3.08608721 0,4.01206053 L0,34.9890592 C0,36.173678 0.824242642,37 2.0042815,37 L18.1623372,37 C21.3377348,37 31,37 31,26.7124028 C31,22.371413 28.5618479,19.5061582 25.8560121,17.9822771 Z" id="Stroke-7" stroke="#FFFFFF" stroke-width="0.612"></path>
                <path d="M63.8699381,2 C62.4560776,2 61.9055992,3.06613005 61.4258137,3.99968434 L47.9083805,31.5135732 C47.8805669,31.4505997 47.855071,31.3909407 47.8295752,31.3357008 L35.5880931,4.02840909 C35.2172445,3.21969697 34.655177,2 33.1300619,2 C31.8761299,2 31,2.85400884 31,4.0770202 C31,4.73879419 31.2804543,5.28677399 31.4821032,5.68671086 L44.1801927,34.1242109 C45.0806596,36.1117424 46.234926,37 47.9130161,37 C49.9747028,37 50.919208,35.6300505 51.6307738,34.1551452 L65.4112778,5.92424242 C65.6743485,5.43813131 66,4.83270202 66,4.0770202 C66,2.85400884 65.1238701,2 63.8699381,2" id="Fill-9" fill="#FFFFFF"></path>
                <path d="M63.8699381,2 C62.4560776,2 61.9055992,3.06613005 61.4258137,3.99968434 L47.9083805,31.5135732 C47.8805669,31.4505997 47.855071,31.3909407 47.8295752,31.3357008 L35.5880931,4.02840909 C35.2172445,3.21969697 34.655177,2 33.1300619,2 C31.8761299,2 31,2.85400884 31,4.0770202 C31,4.73879419 31.2804543,5.28677399 31.4821032,5.68671086 L44.1801927,34.1242109 C45.0806596,36.1117424 46.234926,37 47.9130161,37 C49.9747028,37 50.919208,35.6300505 51.6307738,34.1551452 L65.4112778,5.92424242 C65.6743485,5.43813131 66,4.83270202 66,4.0770202 C66,2.85400884 65.1238701,2 63.8699381,2 Z" id="Stroke-10" stroke="#FFFFFF" stroke-width="0.612"></path>
                <path d="M83.567803,6.32620508 L97.4285606,6.32620508 C101.080455,6.32620508 105.43572,7.36493915 105.43572,12.3139398 C105.43572,17.1094659 103.38197,18.3494964 95.4440909,18.3494964 L83.567803,18.3494964 L83.567803,6.32620508 Z M110,12.3139398 C110,5.85688412 105.299508,2 97.4285606,2 L81.1101136,2 C79.8290152,2 79,2.7851673 79,3.99850656 L79,33.8270789 C79,34.8558038 79,37 81.3097348,37 C83.567803,37 83.567803,34.7112262 83.567803,33.7325474 L83.567803,22.6734772 L96.7839015,22.6734772 L103.527576,35.3529281 C103.809394,35.929014 104.328409,37 105.809129,37 C106.990417,37 107.919242,36.0791522 107.919242,34.906962 C107.919242,34.512154 107.806515,34.1073369 107.581061,33.6813892 L101.714545,22.2808935 C105.683485,21.3945219 110,19.1580185 110,12.3139398 L110,12.3139398 Z" id="Fill-12" fill="#FFFFFF"></path>
                <path d="M83.567803,6.32620508 L97.4285606,6.32620508 C101.080455,6.32620508 105.43572,7.36493915 105.43572,12.3139398 C105.43572,17.1094659 103.38197,18.3494964 95.4440909,18.3494964 L83.567803,18.3494964 L83.567803,6.32620508 Z M110,12.3139398 C110,5.85688412 105.299508,2 97.4285606,2 L81.1101136,2 C79.8290152,2 79,2.7851673 79,3.99850656 L79,33.8270789 C79,34.8558038 79,37 81.3097348,37 C83.567803,37 83.567803,34.7112262 83.567803,33.7325474 L83.567803,22.6734772 L96.7839015,22.6734772 L103.527576,35.3529281 C103.809394,35.929014 104.328409,37 105.809129,37 C106.990417,37 107.919242,36.0791522 107.919242,34.906962 C107.919242,34.512154 107.806515,34.1073369 107.581061,33.6813892 L101.714545,22.2808935 C105.683485,21.3945219 110,19.1580185 110,12.3139398 Z" id="Stroke-13" stroke="#FFFFFF" stroke-width="0.612"></path>
                <path d="M139.183891,32.6455741 L118.504615,32.6455741 L118.504615,20.920311 L128.562642,20.920311 C130.640536,20.920311 131.37991,19.7356921 131.37991,18.7212643 C131.37991,18.3607281 131.24316,16.565885 128.562642,16.565885 L118.504615,16.565885 L118.504615,6.3555456 L138.060925,6.3555456 C140.13766,6.3555456 140.874715,5.17092677 140.874715,4.15649893 C140.874715,3.79484309 140.737966,2 138.060925,2 L116.08253,2 C114.855263,2 114,2.8274417 114,4.01206053 L114,34.9890592 C114,36.173678 114.855263,37 116.08253,37 L139.183891,37 C141.260627,37 142,35.8153812 142,34.8009533 C142,34.2959788 141.796035,32.6455741 139.183891,32.6455741" id="Fill-15" fill="#FFFFFF"></path>
                <path d="M139.183891,32.6455741 L118.504615,32.6455741 L118.504615,20.920311 L128.562642,20.920311 C130.640536,20.920311 131.37991,19.7356921 131.37991,18.7212643 C131.37991,18.3607281 131.24316,16.565885 128.562642,16.565885 L118.504615,16.565885 L118.504615,6.3555456 L138.060925,6.3555456 C140.13766,6.3555456 140.874715,5.17092677 140.874715,4.15649893 C140.874715,3.79484309 140.737966,2 138.060925,2 L116.08253,2 C114.855263,2 114,2.8274417 114,4.01206053 L114,34.9890592 C114,36.173678 114.855263,37 116.08253,37 L139.183891,37 C141.260627,37 142,35.8153812 142,34.8009533 C142,34.2959788 141.796035,32.6455741 139.183891,32.6455741 Z" id="Stroke-16" stroke="#FFFFFF" stroke-width="0.612"></path>
                <path d="M152.938719,22.0517355 L160.054854,7.35985953 L166.617856,22.0517355 L152.938719,22.0517355 Z M162.438375,1.9281347 C162.145742,1.25061926 161.60179,0 160.154694,0 C158.777599,0 158.194629,1.16941022 157.840028,1.87940927 L142.543952,33.1889756 C142.28919,33.6692691 142,34.2122096 142,34.8166369 C142,36.0800176 142.969704,37 144.304338,37 C145.563232,37 146.112922,35.9512432 146.420473,35.3700185 L150.752582,26.5623177 L168.557264,26.5623177 L172.423457,35.0591039 C172.72527,35.6878939 173.352995,37 174.840257,37 C176.257517,37 177,35.9512432 177,34.9152479 C177,34.4372746 176.807207,33.9929452 176.63966,33.6008215 L162.438375,1.9281347 L162.438375,1.9281347 Z" id="Fill-18" fill="#FFFFFF"></path>
                <path d="M152.938719,22.0517355 L160.054854,7.35985953 L166.617856,22.0517355 L152.938719,22.0517355 Z M162.438375,1.9281347 C162.145742,1.25061926 161.60179,0 160.154694,0 C158.777599,0 158.194629,1.16941022 157.840028,1.87940927 L142.543952,33.1889756 C142.28919,33.6692691 142,34.2122096 142,34.8166369 C142,36.0800176 142.969704,37 144.304338,37 C145.563232,37 146.112922,35.9512432 146.420473,35.3700185 L150.752582,26.5623177 L168.557264,26.5623177 L172.423457,35.0591039 C172.72527,35.6878939 173.352995,37 174.840257,37 C176.257517,37 177,35.9512432 177,34.9152479 C177,34.4372746 176.807207,33.9929452 176.63966,33.6008215 L162.438375,1.9281347 Z" id="Stroke-19" stroke="#FFFFFF" stroke-width="0.612"></path>
                <path d="M206.134371,32.6744947 L185.290723,32.6744947 L185.290723,5.12539723 C185.290723,3.95754417 185.290723,2 183.121095,2 C181,2 181,3.95754417 181,5.12539723 L181,35.0024152 C181,36.1791661 181.814024,37 182.982115,37 L206.134371,37 C206.842505,37 209,37 209,34.8155587 C209,33.8390111 208.502541,32.6744947 206.134371,32.6744947" id="Fill-21" fill="#FFFFFF"></path>
                <path d="M206.134371,32.6744947 L185.290723,32.6744947 L185.290723,5.12539723 C185.290723,3.95754417 185.290723,2 183.121095,2 C181,2 181,3.95754417 181,5.12539723 L181,35.0024152 C181,36.1791661 181.814024,37 182.982115,37 L206.134371,37 C206.842505,37 209,37 209,34.8155587 C209,33.8390111 208.502541,32.6744947 206.134371,32.6744947 Z" id="Stroke-22" stroke="#FFFFFF" stroke-width="0.612"></path>
                <path d="M232.256492,2 L204.743508,2 C202.132095,2 202,3.78275238 202,4.14197197 C202,5.14956627 202.720312,6.32620508 204.743508,6.32620508 L216.305758,6.32620508 L216.305758,34.0617394 C216.305758,36.4884179 217.485579,37 218.476855,37 C219.305553,37 220.694242,36.6174256 220.694242,34.0617394 L220.694242,6.32620508 L232.256492,6.32620508 C234.279688,6.32620508 235,5.14956627 235,4.14197197 C235,3.78275238 234.867905,2 232.256492,2" id="Fill-24" fill="#FFFFFF"></path>
                <path d="M232.256492,2 L204.743508,2 C202.132095,2 202,3.78275238 202,4.14197197 C202,5.14956627 202.720312,6.32620508 204.743508,6.32620508 L216.305758,6.32620508 L216.305758,34.0617394 C216.305758,36.4884179 217.485579,37 218.476855,37 C219.305553,37 220.694242,36.6174256 220.694242,34.0617394 L220.694242,6.32620508 L232.256492,6.32620508 C234.279688,6.32620508 235,5.14956627 235,4.14197197 C235,3.78275238 234.867905,2 232.256492,2 Z" id="Stroke-25" stroke="#FFFFFF" stroke-width="0.612"></path>
                <path d="M267.803497,2 C266.761128,2 266.177219,2.73469066 265.742708,3.28267045 L253.860382,16.6054293 L241.37932,3.30697601 L241.103331,3.02525253 C240.786287,2.66729798 240.194395,2 239.097284,2 C237.921482,2 237,2.89267677 237,4.03061869 C237,5.03929924 237.651196,5.65798611 238.125622,6.10984848 L251.595452,20.6213699 L251.595452,34.0811237 C251.595452,36.4917929 252.78722,37 253.788533,37 C254.625622,37 256.028373,36.6199495 256.028373,34.0811237 L256.028373,20.6092172 L269.053428,6.05460859 C269.495922,5.4988952 270,4.87026515 270,4.12231692 C270,2.97222222 268.994125,2 267.803497,2" id="Fill-27" fill="#FFFFFF"></path>
                <path d="M267.803497,2 C266.761128,2 266.177219,2.73469066 265.742708,3.28267045 L253.860382,16.6054293 L241.37932,3.30697601 L241.103331,3.02525253 C240.786287,2.66729798 240.194395,2 239.097284,2 C237.921482,2 237,2.89267677 237,4.03061869 C237,5.03929924 237.651196,5.65798611 238.125622,6.10984848 L251.595452,20.6213699 L251.595452,34.0811237 C251.595452,36.4917929 252.78722,37 253.788533,37 C254.625622,37 256.028373,36.6199495 256.028373,34.0811237 L256.028373,20.6092172 L269.053428,6.05460859 C269.495922,5.4988952 270,4.87026515 270,4.12231692 C270,2.97222222 268.994125,2 267.803497,2 Z" id="Stroke-28" stroke="#FFFFFF" stroke-width="0.612"></path>
            </g>
        </g>
    </g>
</svg>