<?xml version="1.0" encoding="UTF-8"?>
<svg width="100px" height="92px" viewBox="0 0 100 92" version="1.1" xmlns="http://www.w3.org/2000/svg" xmlns:xlink="http://www.w3.org/1999/xlink">
    <title>warning</title>
    <g id="Desktop" stroke="none" stroke-width="1" fill="none" fill-rule="evenodd">
        <g id="010---404" transform="translate(-1316.000000, -431.000000)" fill="#00BE66" fill-rule="nonzero">
            <g id="icon" transform="translate(1191.000000, 302.000000)">
                <g id="warning" transform="translate(125.000000, 129.000000)">
                    <path d="M49.9987366,64.2391798 C47.2030475,64.2391798 44.8596022,66.5826251 44.8596022,69.3783142 C44.8596022,72.1740033 47.2030475,74.5174485 49.9987366,74.5174485 C52.691643,74.5174485 55.137871,72.1740033 55.0145318,69.5016534 C55.137871,66.5620685 52.8149823,64.2391798 49.9987366,64.2391798 Z" id="Path"></path>
                    <path d="M97.5665645,82.452272 C100.793941,76.8814504 100.814497,70.2416887 97.6076775,64.6914236 L65.4161398,8.94209383 C62.2298764,3.33015908 56.4740459,0 50.0192931,0 C43.5645404,0 37.8087099,3.35071562 34.6224465,8.92153729 L2.38979569,64.7325367 C-0.817024167,70.3444714 -0.796467629,77.0253461 2.4514653,82.5961678 C5.65828516,88.1053199 11.3935591,91.4149224 17.8071988,91.4149224 L82.1080482,91.4149224 C88.5422445,91.4149224 94.3186315,88.0642068 97.5665645,82.452272 Z M90.5773417,78.4231907 C88.7889229,81.5066713 85.6232162,83.3362032 82.0874917,83.3362032 L17.7866423,83.3362032 C14.2920309,83.3362032 11.1468807,81.5477844 9.39957499,78.5259734 C7.63171276,75.4630493 7.61115622,71.8039856 9.37901845,68.720505 L41.6116693,12.9300621 C43.358975,9.86713801 46.4835687,8.05816271 50.0192931,8.05816271 C53.5344611,8.05816271 56.6796113,9.88769455 58.426917,12.9506186 L90.6390113,68.7410615 C92.3657605,71.742316 92.3452039,75.3602666 90.5773417,78.4231907 Z" id="Shape"></path>
                    <path d="M48.7242313,28.1624564 C46.2780033,28.8613787 44.7568195,31.0814847 44.7568195,33.7743912 C44.8801588,35.3983576 44.9829415,37.0428806 45.1062807,38.6668471 C45.4557418,44.8543649 45.805203,50.9185435 46.1546641,57.1060613 C46.2780033,59.2028281 47.9019698,60.7240119 49.9987366,60.7240119 C52.0955034,60.7240119 53.7400264,59.1000454 53.8428091,56.982722 C53.8428091,55.7082167 53.8428091,54.5364941 53.9661484,53.2414322 C54.1922703,49.2740205 54.4389487,45.3066087 54.6650706,41.339197 C54.7884099,38.7696298 55.0145318,36.2000626 55.137871,33.6304954 C55.137871,32.7054512 55.0145318,31.8831897 54.6650706,31.0609282 C53.6166872,28.758596 51.1704592,27.5868734 48.7242313,28.1624564 Z" id="Path"></path>
                </g>
            </g>
        </g>
    </g>
</svg>